<svg width="20" height="22" viewBox="0 0 20 22" fill="none" xmlns="http://www.w3.org/2000/svg">
<path d="M4.32757 14.4816C2.9128 15.324 -0.796635 17.0441 1.46266 19.1966C2.56631 20.248 3.79549 21 5.34087 21H14.1591C15.7045 21 16.9337 20.248 18.0373 19.1966C20.2966 17.0441 16.5872 15.324 15.1724 14.4816C11.8548 12.5061 7.64519 12.5061 4.32757 14.4816Z" stroke="#ABB7C2" stroke-width="1.5" stroke-linecap="round" stroke-linejoin="round"/>
<path d="M14.25 5.5C14.25 7.98528 12.2353 10 9.75 10C7.26472 10 5.25 7.98528 5.25 5.5C5.25 3.01472 7.26472 1 9.75 1C12.2353 1 14.25 3.01472 14.25 5.5Z" stroke="#ABB7C2" stroke-width="1.5"/>
</svg>
