<svg width="14" height="13" viewBox="0 0 14 13" fill="none" xmlns="http://www.w3.org/2000/svg">
<path d="M11.8297 4.29623C12.2094 4.26089 12.5822 4.27999 12.9144 4.47756C12.9852 4.51965 13.0524 4.56715 13.1155 4.61973C13.1787 4.67232 13.2375 4.72983 13.2917 4.79183C13.5461 5.08285 13.6323 5.4461 13.6661 5.82592C13.6992 6.19604 13.6878 6.6675 13.674 7.23885L13.6371 8.76718C13.6304 9.04295 13.4015 9.2611 13.1257 9.25445C12.85 9.24779 12.6318 9.01885 12.6385 8.74308L12.6746 7.2452C12.689 6.64704 12.6982 6.2369 12.6727 5.93183L7.2126 12.4868C7.03606 12.6988 6.72112 12.7275 6.50917 12.5509C6.29722 12.3744 6.26852 12.0594 6.44507 11.8475L11.9051 5.2925C11.6005 5.32253 11.1987 5.40567 10.613 5.52799L9.14636 5.8343C8.87634 5.89069 8.61173 5.71751 8.55534 5.44749C8.49895 5.17747 8.67213 4.91287 8.94215 4.85647L10.4386 4.54394C10.9981 4.42709 11.4597 4.33067 11.8297 4.29623Z" fill="black"/>
<path d="M7.63654 1.57267C7.81309 1.36073 7.78439 1.04579 7.57244 0.869244C7.36049 0.692699 7.04555 0.721399 6.86901 0.933348L1.40895 7.48834C1.38341 7.18326 1.39257 6.77313 1.40701 6.17496L1.44315 4.67708C1.44981 4.40132 1.23165 4.17237 0.955886 4.16572C0.680121 4.15906 0.451175 4.37722 0.44452 4.65299L0.40764 6.18131C0.393839 6.75266 0.382451 7.22412 0.415461 7.59425C0.449334 7.97407 0.53551 8.33732 0.789873 8.62834C0.844062 8.69034 0.902923 8.74784 0.966058 8.80043C1.02919 8.85302 1.09639 8.90052 1.16716 8.94261C1.49937 9.14018 1.87222 9.15927 2.2519 9.12393C2.62189 9.08949 3.08354 8.99307 3.64298 8.87622L5.13946 8.56369C5.40948 8.5073 5.58266 8.24269 5.52627 7.97267C5.46987 7.70265 5.20527 7.52947 4.93525 7.58586L3.46857 7.89217C2.88287 8.01449 2.48115 8.09763 2.17648 8.12766L7.63654 1.57267Z" fill="black"/>
<path d="M11.8297 4.29623C12.2094 4.26089 12.5822 4.27999 12.9144 4.47756C12.9852 4.51965 13.0524 4.56715 13.1155 4.61973C13.1787 4.67232 13.2375 4.72983 13.2917 4.79183C13.5461 5.08285 13.6323 5.4461 13.6661 5.82592C13.6992 6.19604 13.6878 6.6675 13.674 7.23885L13.6371 8.76718C13.6304 9.04295 13.4015 9.2611 13.1257 9.25445C12.85 9.24779 12.6318 9.01885 12.6385 8.74308L12.6746 7.2452C12.689 6.64704 12.6982 6.2369 12.6727 5.93183L7.2126 12.4868C7.03606 12.6988 6.72112 12.7275 6.50917 12.5509C6.29722 12.3744 6.26852 12.0594 6.44507 11.8475L11.9051 5.2925C11.6005 5.32253 11.1987 5.40567 10.613 5.52799L9.14636 5.8343C8.87634 5.89069 8.61173 5.71751 8.55534 5.44749C8.49895 5.17747 8.67213 4.91287 8.94215 4.85647L10.4386 4.54394C10.9981 4.42709 11.4597 4.33067 11.8297 4.29623Z" stroke="black" stroke-width="0.3" stroke-linecap="round"/>
<path d="M7.63654 1.57267C7.81309 1.36073 7.78439 1.04579 7.57244 0.869244C7.36049 0.692699 7.04555 0.721399 6.86901 0.933348L1.40895 7.48834C1.38341 7.18326 1.39257 6.77313 1.40701 6.17496L1.44315 4.67708C1.44981 4.40132 1.23165 4.17237 0.955886 4.16572C0.680121 4.15906 0.451175 4.37722 0.44452 4.65299L0.40764 6.18131C0.393839 6.75266 0.382451 7.22412 0.415461 7.59425C0.449334 7.97407 0.53551 8.33732 0.789873 8.62834C0.844062 8.69034 0.902923 8.74784 0.966058 8.80043C1.02919 8.85302 1.09639 8.90052 1.16716 8.94261C1.49937 9.14018 1.87222 9.15927 2.2519 9.12393C2.62189 9.08949 3.08354 8.99307 3.64298 8.87622L5.13946 8.56369C5.40948 8.5073 5.58266 8.24269 5.52627 7.97267C5.46987 7.70265 5.20527 7.52947 4.93525 7.58586L3.46857 7.89217C2.88287 8.01449 2.48115 8.09763 2.17648 8.12766L7.63654 1.57267Z" stroke="black" stroke-width="0.3" stroke-linecap="round"/>
</svg>
