<svg width="18" height="18" viewBox="0 0 18 18" fill="none" xmlns="http://www.w3.org/2000/svg">
<path d="M18 14.697C18 15.021 17.9279 15.354 17.7747 15.678C17.6214 16.002 17.4231 16.308 17.1617 16.596C16.7201 17.082 16.2334 17.433 15.6835 17.658C15.1427 17.883 14.5568 18 13.9259 18C13.0065 18 12.024 17.784 10.9875 17.343C9.95093 16.902 8.91437 16.308 7.88683 15.561C6.85028 14.805 5.8678 13.968 4.9304 13.041C4.002 12.105 3.16375 11.124 2.41562 10.098C1.67651 9.072 1.08162 8.046 0.648974 7.029C0.216325 6.003 0 5.022 0 4.086C0 3.474 0.108162 2.889 0.324487 2.349C0.540811 1.8 0.883325 1.296 1.36104 0.846C1.93791 0.279 2.56885 0 3.23585 0C3.48823 0 3.74061 0.0540001 3.96595 0.162C4.2003 0.27 4.40761 0.432 4.56986 0.666L6.66099 3.609C6.82324 3.834 6.94041 4.041 7.02153 4.239C7.10265 4.428 7.14772 4.617 7.14772 4.788C7.14772 5.004 7.08463 5.22 6.95844 5.427C6.84126 5.634 6.67 5.85 6.45368 6.066L5.76865 6.777C5.6695 6.876 5.62444 6.993 5.62444 7.137C5.62444 7.209 5.63345 7.272 5.65148 7.344C5.67852 7.416 5.70556 7.47 5.72359 7.524C5.88583 7.821 6.16525 8.208 6.56184 8.676C6.96745 9.144 7.4001 9.621 7.8688 10.098C8.35553 10.575 8.82424 11.016 9.30195 11.421C9.77066 11.817 10.1582 12.087 10.4647 12.249C10.5098 12.267 10.5638 12.294 10.6269 12.321C10.699 12.348 10.7712 12.357 10.8523 12.357C11.0055 12.357 11.1227 12.303 11.2218 12.204L11.9069 11.529C12.1322 11.304 12.3485 11.133 12.5558 11.025C12.7631 10.899 12.9705 10.836 13.1958 10.836C13.3671 10.836 13.5473 10.872 13.7456 10.953C13.9439 11.034 14.1512 11.151 14.3766 11.304L17.36 13.419C17.5944 13.581 17.7566 13.77 17.8558 13.995C17.9459 14.22 18 14.445 18 14.697Z" fill="black"/>
</svg>
