<svg width="17" height="16" viewBox="0 0 17 16" fill="none" xmlns="http://www.w3.org/2000/svg">
<g clip-path="url(#clip0_54_1276)">
<path d="M15.8923 5.5H14.0213L13.5013 4.2C12.967 2.86344 11.6916 2 10.252 2H6.28321C4.84384 2 3.56821 2.86344 3.03352 4.2L2.51352 5.5H0.642899C0.398837 5.5 0.219774 5.72938 0.279149 5.96594L0.466649 6.71594C0.508212 6.88281 0.658212 7 0.830399 7H1.45759C1.0379 7.36656 0.767587 7.89937 0.767587 8.5V10C0.767587 10.5037 0.960087 10.9584 1.26759 11.3103V13C1.26759 13.5522 1.7154 14 2.26759 14H3.26759C3.81977 14 4.26759 13.5522 4.26759 13V12H12.2676V13C12.2676 13.5522 12.7154 14 13.2676 14H14.2676C14.8198 14 15.2676 13.5522 15.2676 13V11.3103C15.5751 10.9587 15.7676 10.5041 15.7676 10V8.5C15.7676 7.89937 15.4973 7.36656 15.0779 7H15.7051C15.8773 7 16.0273 6.88281 16.0688 6.71594L16.2563 5.96594C16.3154 5.72938 16.1363 5.5 15.8923 5.5ZM4.8904 4.94281C5.11821 4.37344 5.66977 4 6.28321 4H10.252C10.8654 4 11.417 4.37344 11.6448 4.94281L12.2676 6.5H4.26759L4.8904 4.94281ZM3.26759 9.99375C2.66759 9.99375 2.26759 9.595 2.26759 8.99687C2.26759 8.39875 2.66759 8 3.26759 8C3.86759 8 4.76759 8.89719 4.76759 9.49531C4.76759 10.0934 3.86759 9.99375 3.26759 9.99375ZM13.2676 9.99375C12.6676 9.99375 11.7676 10.0934 11.7676 9.49531C11.7676 8.89719 12.6676 8 13.2676 8C13.8676 8 14.2676 8.39875 14.2676 8.99687C14.2676 9.595 13.8676 9.99375 13.2676 9.99375Z" fill="#3A8BEA"/>
</g>
<defs>
<clipPath id="clip0_54_1276">
<rect width="16" height="16" fill="white" transform="translate(0.267578)"/>
</clipPath>
</defs>
</svg>
