<svg width="16" height="14" viewBox="0 0 16 14" fill="none" xmlns="http://www.w3.org/2000/svg">
<path d="M3.45342 9.19727C2.61504 9.68867 0.416849 10.6921 1.75569 11.9477C2.40971 12.561 3.13811 12.9997 4.05389 12.9997H9.27953C10.1953 12.9997 10.9237 12.561 11.5777 11.9477C12.9166 10.6921 10.7184 9.68867 9.88 9.19727C7.914 8.04492 5.41941 8.04492 3.45342 9.19727Z" stroke="#1326E4" stroke-width="1.5" stroke-linecap="round" stroke-linejoin="round"/>
<path d="M9.33333 3.66667C9.33333 5.13943 8.13943 6.33333 6.66667 6.33333C5.19391 6.33333 4 5.13943 4 3.66667C4 2.19391 5.19391 1 6.66667 1C8.13943 1 9.33333 2.19391 9.33333 3.66667Z" stroke="#1326E4" stroke-width="1.5"/>
<path d="M13 1.66699V5.00033M14.6667 3.33366L11.3334 3.33366" stroke="#1326E4" stroke-width="1.5" stroke-linecap="round" stroke-linejoin="round"/>
</svg>
