<svg width="48" height="53" viewBox="0 0 48 53" fill="none" xmlns="http://www.w3.org/2000/svg">
<path d="M10.4443 35.204C6.90736 37.31 -2.36624 41.6103 3.282 46.9914C6.04112 49.62 9.11408 51.5 12.9775 51.5H35.0232C38.8866 51.5 41.9596 49.62 44.7187 46.9914C50.3669 41.6103 41.0933 37.31 37.5564 35.204C29.2624 30.2653 18.7383 30.2653 10.4443 35.204Z" stroke="#C0C0C0" stroke-width="3" stroke-linecap="round" stroke-linejoin="round"/>
<path d="M35.2504 12.75C35.2504 18.9632 30.2136 24 24.0004 24C17.7871 24 12.7504 18.9632 12.7504 12.75C12.7504 6.5368 17.7871 1.5 24.0004 1.5C30.2136 1.5 35.2504 6.5368 35.2504 12.75Z" stroke="#C0C0C0" stroke-width="3"/>
</svg>
