<svg width="17" height="17" viewBox="0 0 17 17" fill="none" xmlns="http://www.w3.org/2000/svg">
<path d="M11.7617 2.40199L12.9299 1.23386C13.575 0.588715 14.621 0.588714 15.2661 1.23386C15.9113 1.879 15.9113 2.92498 15.2661 3.57013L14.098 4.73826M11.7617 2.40199L7.40018 6.76354C6.5291 7.63463 6.09355 8.07018 5.79697 8.60092C5.50039 9.13167 5.202 10.3849 4.91666 11.5833C6.11507 11.298 7.36832 10.9996 7.89907 10.703C8.42982 10.4064 8.86536 9.9709 9.73645 9.09981L14.098 4.73826M11.7617 2.40199L14.098 4.73826" stroke="white" stroke-width="1.5" stroke-linecap="round" stroke-linejoin="round"/>
<path d="M15.75 8.25C15.75 11.7855 15.75 13.5533 14.6516 14.6516C13.5533 15.75 11.7855 15.75 8.25 15.75C4.71447 15.75 2.9467 15.75 1.84835 14.6516C0.75 13.5533 0.75 11.7855 0.75 8.25C0.75 4.71447 0.75 2.9467 1.84835 1.84835C2.9467 0.75 4.71447 0.75 8.25 0.75" stroke="white" stroke-width="1.5" stroke-linecap="round"/>
</svg>
