<svg width="22" height="21" viewBox="0 0 22 21" fill="none" xmlns="http://www.w3.org/2000/svg">
<path fill-rule="evenodd" clip-rule="evenodd" d="M10.9792 1.875C10.8806 1.875 10.6379 1.90208 10.509 2.15992L8.53082 6.11517C8.21774 6.74025 7.61432 7.17467 6.91666 7.27433L2.48799 7.91242C2.19549 7.95467 2.09582 8.17133 2.06549 8.26233C2.03841 8.35008 1.99507 8.57325 2.19657 8.76608L5.39891 11.8427C5.90916 12.3335 6.14099 13.0409 6.01966 13.7332L5.26566 18.0773C5.21907 18.3492 5.38916 18.5074 5.46499 18.5616C5.54516 18.6222 5.75966 18.7425 6.02507 18.6038L9.98466 16.5509C10.6087 16.2292 11.3518 16.2292 11.9737 16.5509L15.9322 18.6027C16.1987 18.7403 16.4132 18.6201 16.4944 18.5616C16.5702 18.5074 16.7403 18.3492 16.6937 18.0773L15.9376 13.7332C15.8162 13.0409 16.0481 12.3335 16.5583 11.8427L19.7607 8.76608C19.9632 8.57325 19.9199 8.349 19.8917 8.26233C19.8625 8.17133 19.7628 7.95467 19.4703 7.91242L15.0417 7.27433C14.3451 7.17467 13.7417 6.74025 13.4286 6.11408L11.4482 2.15992C11.3204 1.90208 11.0777 1.875 10.9792 1.875ZM5.77591 20.2917C5.32849 20.2917 4.88432 20.1508 4.50407 19.8735C3.84757 19.3925 3.52582 18.5984 3.66557 17.7989L4.41957 13.4548C4.44774 13.2933 4.39249 13.1298 4.27332 13.0149L1.07099 9.93825C0.481657 9.37383 0.270407 8.53967 0.519574 7.76508C0.770907 6.98183 1.43607 6.42175 2.25616 6.30475L6.68482 5.66667C6.85599 5.64283 7.00332 5.53775 7.07699 5.38825L9.05624 1.43192C9.42132 0.702833 10.158 0.25 10.9792 0.25C11.8003 0.25 12.537 0.702833 12.9021 1.43192L14.8824 5.38717C14.9572 5.53775 15.1034 5.64283 15.2735 5.66667L19.7022 6.30475C20.5222 6.42175 21.1874 6.98183 21.4387 7.76508C21.6879 8.53967 21.4756 9.37383 20.8862 9.93825L17.6839 13.0149C17.5647 13.1298 17.5106 13.2933 17.5387 13.4537L18.2938 17.7989C18.4325 18.5995 18.1107 19.3936 17.4532 19.8735C16.7869 20.3621 15.9192 20.4282 15.1836 20.0447L11.2262 17.9939C11.0712 17.9137 10.886 17.9137 10.7311 17.9939L6.77366 20.0458C6.45732 20.2104 6.11607 20.2917 5.77591 20.2917Z" fill="#ABB7C2"/>
</svg>
