<svg width="22" height="22" viewBox="0 0 22 22" fill="none" xmlns="http://www.w3.org/2000/svg">
<path d="M11.2502 20.75H5.34111C3.79574 20.75 2.56655 19.998 1.46291 18.9466C-0.796391 16.7941 2.91305 15.074 4.32782 14.2316C6.57725 12.8922 9.23675 12.4609 11.7502 12.9378" stroke="black" stroke-width="1.5" stroke-linecap="round" stroke-linejoin="round"/>
<path d="M14.2502 5.25C14.2502 7.73528 12.2355 9.75 9.75024 9.75C7.26496 9.75 5.25024 7.73528 5.25024 5.25C5.25024 2.76472 7.26496 0.75 9.75024 0.75C12.2355 0.75 14.2502 2.76472 14.2502 5.25Z" stroke="black" stroke-width="1.5"/>
<path d="M17.4413 13.3277L18.1452 14.7472C18.2412 14.9447 18.4972 15.1343 18.7132 15.1706L19.989 15.3843C20.8049 15.5214 20.9969 16.1182 20.409 16.707L19.4171 17.7071C19.2491 17.8765 19.1571 18.2031 19.2091 18.437L19.4931 19.675C19.717 20.6549 19.2011 21.034 18.3412 20.5218L17.1453 19.8081C16.9294 19.679 16.5734 19.679 16.3534 19.8081L15.1576 20.5218C14.3016 21.034 13.7817 20.6509 14.0057 19.675L14.2896 18.437C14.3416 18.2031 14.2497 17.8765 14.0817 17.7071L13.0898 16.707C12.5058 16.1182 12.6938 15.5214 13.5097 15.3843L14.7856 15.1706C14.9976 15.1343 15.2535 14.9447 15.3495 14.7472L16.0535 13.3277C16.4374 12.5574 17.0613 12.5574 17.4413 13.3277Z" stroke="black" stroke-width="1.5" stroke-linecap="round" stroke-linejoin="round"/>
</svg>
