<svg width="22" height="22" viewBox="0 0 22 22" fill="none" xmlns="http://www.w3.org/2000/svg">
<path d="M8.25 16.25C7.83579 16.25 7.5 16.5858 7.5 17C7.5 17.4142 7.83579 17.75 8.25 17.75H14.25C14.6642 17.75 15 17.4142 15 17C15 16.5858 14.6642 16.25 14.25 16.25H8.25Z" fill="#1326E4"/>
<path fill-rule="evenodd" clip-rule="evenodd" d="M11.25 0.25C10.5419 0.25 9.89853 0.45282 9.20055 0.79224C8.52585 1.12035 7.74642 1.60409 6.77286 2.20832L4.70628 3.4909C3.78509 4.06261 3.04744 4.5204 2.4789 4.95581C1.89015 5.40669 1.43795 5.86589 1.11131 6.46263C0.785355 7.05812 0.638567 7.69174 0.56819 8.4407C0.499986 9.16654 0.499992 10.0541 0.5 11.1672V12.7799C0.499986 14.6837 0.499975 16.1866 0.652703 17.3616C0.809372 18.567 1.13856 19.5401 1.88236 20.3094C2.62958 21.0824 3.58046 21.4277 4.75761 21.5914C5.89849 21.75 7.35556 21.75 9.19185 21.75H13.3081C15.1444 21.75 16.6015 21.75 17.7424 21.5914C18.9195 21.4277 19.8704 21.0824 20.6176 20.3094C21.3614 19.5401 21.6906 18.567 21.8473 17.3616C22 16.1866 22 14.6838 22 12.7799V11.1672C22 10.0541 22 9.16652 21.9318 8.4407C21.8614 7.69174 21.7146 7.05812 21.3887 6.46263C21.0621 5.86589 20.6099 5.40669 20.0211 4.95581C19.4526 4.5204 18.7149 4.06262 17.7937 3.49091L15.7271 2.20831C14.7536 1.60409 13.9741 1.12034 13.2994 0.79224C12.6015 0.452819 11.9581 0.25 11.25 0.25ZM7.52953 3.50412C8.54529 2.87371 9.2595 2.43153 9.85654 2.1412C10.4382 1.85833 10.8502 1.75 11.25 1.75C11.6498 1.75 12.0618 1.85833 12.6435 2.14119C13.2405 2.43153 13.9547 2.87371 14.9705 3.50412L16.9705 4.74537C17.9313 5.34169 18.6059 5.76135 19.1091 6.1467C19.5987 6.52164 19.8803 6.83106 20.0729 7.18285C20.2662 7.53589 20.379 7.94865 20.4384 8.58104C20.4992 9.22859 20.5 10.0458 20.5 11.2039V12.725C20.5 14.6959 20.4985 16.1012 20.3598 17.1683C20.2236 18.2163 19.967 18.8244 19.5392 19.2669C19.1149 19.7058 18.5371 19.9664 17.5358 20.1057C16.5102 20.2483 15.1575 20.25 13.25 20.25H9.25C7.34247 20.25 5.98983 20.2483 4.96422 20.1057C3.96286 19.9664 3.38514 19.7058 2.96079 19.2669C2.53301 18.8244 2.27642 18.2163 2.14019 17.1683C2.00149 16.1012 2 14.6959 2 12.725V11.2039C2 10.0458 2.00076 9.22859 2.06161 8.58104C2.12103 7.94865 2.23385 7.53589 2.42709 7.18285C2.61965 6.83106 2.90133 6.52164 3.39092 6.1467C3.8941 5.76135 4.56869 5.34169 5.52953 4.74537L7.52953 3.50412Z" fill="#1326E4"/>
</svg>
