<svg width="19" height="19" viewBox="0 0 19 19" fill="none" xmlns="http://www.w3.org/2000/svg">
<path d="M17.1493 9.58831L18.115 7.90478C18.231 7.70223 18.2626 7.46147 18.2027 7.23545C18.1429 7.00943 17.9965 6.81664 17.7957 6.69948L16.125 5.72537V3.78419C16.125 3.55018 16.0329 3.32575 15.8688 3.16027C15.7048 2.9948 15.4823 2.90184 15.2503 2.90184H13.3269L12.3621 1.21743C12.2455 1.01529 12.0548 0.867577 11.8311 0.806249C11.7202 0.77591 11.6044 0.768087 11.4904 0.783233C11.3764 0.798379 11.2666 0.836194 11.1672 0.894484L9.49654 1.8686L7.82585 0.893602C7.62495 0.7766 7.38621 0.744893 7.16213 0.805455C6.93806 0.866018 6.74701 1.01389 6.63101 1.21654L5.66534 2.90184H3.74187C3.50988 2.90184 3.2874 2.9948 3.12336 3.16027C2.95932 3.32575 2.86716 3.55018 2.86716 3.78419V5.72448L1.19648 6.6986C1.09679 6.75644 1.00942 6.83359 0.939376 6.9256C0.869333 7.01761 0.818004 7.12267 0.788336 7.23475C0.758669 7.34684 0.751248 7.46373 0.766501 7.57871C0.781754 7.6937 0.819379 7.80451 0.877215 7.90478L1.84289 9.58831L0.877215 11.2718C0.761745 11.4746 0.730416 11.7151 0.790059 11.9411C0.849702 12.167 0.995479 12.36 1.19561 12.478L2.86629 13.4521V15.3924C2.86629 15.6264 2.95845 15.8509 3.12248 16.0163C3.28652 16.1818 3.50901 16.2748 3.74099 16.2748H5.66534L6.63101 17.9601C6.70845 18.0936 6.81901 18.2045 6.95183 18.2819C7.08465 18.3592 7.23514 18.4004 7.3885 18.4012C7.5407 18.4012 7.69202 18.3607 7.82673 18.2821L9.49566 17.308L11.1663 18.2821C11.3672 18.399 11.6058 18.4307 11.8298 18.3703C12.0538 18.3099 12.2449 18.1624 12.3612 17.9601L13.326 16.2748H15.2495C15.4814 16.2748 15.7039 16.1818 15.868 16.0163C16.032 15.8509 16.1242 15.6264 16.1242 15.3924V13.4521L17.7948 12.478C17.8944 12.42 17.9816 12.3428 18.0515 12.2507C18.1214 12.1587 18.1726 12.0537 18.2023 11.9417C18.2319 11.8297 18.2394 11.7128 18.2243 11.5979C18.2091 11.483 18.1717 11.3722 18.1141 11.2718L17.1493 9.58831ZM7.3089 5.16772C7.657 5.16784 7.99079 5.30744 8.23685 5.55581C8.4829 5.80419 8.62107 6.14099 8.62096 6.49213C8.62084 6.84327 8.48245 7.17998 8.23623 7.42819C7.99001 7.6764 7.65612 7.81578 7.30803 7.81566C6.95993 7.81554 6.62614 7.67594 6.38009 7.42757C6.13403 7.17919 5.99586 6.84239 5.99598 6.49125C5.99609 6.14011 6.13448 5.8034 6.3807 5.55519C6.62693 5.30698 6.96081 5.1676 7.3089 5.16772ZM7.57131 13.6383L6.17179 12.5804L11.42 5.52154L12.8195 6.57948L7.57131 13.6383ZM11.6824 13.9912C11.5101 13.9912 11.3394 13.9569 11.1802 13.8903C11.021 13.8237 10.8763 13.7261 10.7545 13.6032C10.6326 13.4802 10.536 13.3342 10.4701 13.1735C10.4042 13.0129 10.3703 12.8407 10.3704 12.6668C10.3704 12.493 10.4044 12.3208 10.4704 12.1602C10.5364 11.9996 10.6332 11.8537 10.7551 11.7308C10.877 11.6079 11.0217 11.5104 11.181 11.4439C11.3403 11.3774 11.5109 11.3432 11.6833 11.3433C12.0314 11.3434 12.3652 11.483 12.6112 11.7314C12.8573 11.9798 12.9955 12.3166 12.9953 12.6677C12.9952 13.0189 12.8568 13.3556 12.6106 13.6038C12.3644 13.852 12.0305 13.9914 11.6824 13.9912Z" fill="#4CD171"/>
</svg>
