<svg width="22" height="22" viewBox="0 0 22 22" fill="none" xmlns="http://www.w3.org/2000/svg">
<path d="M6.53256 15.8612C5.43218 16.493 2.54706 17.7831 4.30429 19.3974C5.16269 20.186 6.11872 20.75 7.32068 20.75H14.1793C15.3813 20.75 16.3373 20.186 17.1957 19.3974C18.9529 17.7831 16.0678 16.493 14.9674 15.8612C12.3871 14.3796 9.11292 14.3796 6.53256 15.8612Z" stroke="black" stroke-width="1.5" stroke-linecap="round" stroke-linejoin="round"/>
<path d="M14.25 8.75C14.25 10.683 12.683 12.25 10.75 12.25C8.817 12.25 7.25 10.683 7.25 8.75C7.25 6.817 8.817 5.25 10.75 5.25C12.683 5.25 14.25 6.817 14.25 8.75Z" stroke="black" stroke-width="1.5"/>
<path d="M1.604 14.75C1.05501 13.5164 0.75 12.151 0.75 10.7146C0.75 5.21129 5.22715 0.75 10.75 0.75C16.2728 0.75 20.75 5.21129 20.75 10.7146C20.75 12.151 20.445 13.5164 19.896 14.75" stroke="black" stroke-width="1.5" stroke-linecap="round"/>
</svg>
