<svg width="42" height="42" viewBox="0 0 42 42" fill="none" xmlns="http://www.w3.org/2000/svg">
<path d="M21.6455 30.1885C22.015 29.7782 22.6472 29.7449 23.0576 30.1143C23.4679 30.4838 23.5013 31.116 23.1318 31.5264C21.3744 33.4777 18.5537 33.5044 16.7754 31.5254C16.4066 31.1146 16.4409 30.4823 16.8516 30.1133C17.2624 29.7445 17.8947 29.7788 18.2637 30.1895C19.2396 31.275 20.6749 31.2659 21.6455 30.1885ZM20 11C24.5761 11 27.6816 14.5909 27.6816 17.9453C27.6817 18.7469 27.783 19.2977 27.917 19.7129C28.0515 20.1298 28.2312 20.4515 28.4492 20.8164C28.6599 21.169 28.9418 21.6134 29.1504 22.1592C29.3675 22.7274 29.5 23.3822 29.5 24.2207C29.5 24.2494 29.4986 24.2781 29.4961 24.3066C29.4202 25.1818 29.1582 25.9659 28.6494 26.624C28.1434 27.2784 27.4504 27.7343 26.6348 28.0537C25.0516 28.6737 22.8161 28.8477 20 28.8477C17.1855 28.8477 14.9494 28.6771 13.3662 28.0586C12.5503 27.7398 11.8569 27.2833 11.3506 26.6279C10.8417 25.9691 10.58 25.1838 10.5039 24.3066C10.5014 24.2781 10.5 24.2494 10.5 24.2207C10.5 23.3822 10.6325 22.7274 10.8496 22.1592C11.0582 21.6134 11.3401 21.169 11.5508 20.8164C11.7688 20.4515 11.9485 20.1298 12.083 19.7129C12.217 19.2977 12.3183 18.7469 12.3184 17.9453C12.3184 14.5909 15.4239 11 20 11ZM20 13C16.4857 13 14.3184 15.7378 14.3184 17.9453C14.3183 18.9235 14.1933 19.6845 13.9863 20.3262C13.7799 20.9661 13.5042 21.4467 13.2676 21.8428C13.0237 22.2509 12.8512 22.5268 12.7188 22.873C12.598 23.1889 12.5047 23.5872 12.5 24.1738C12.5541 24.7324 12.7114 25.1176 12.9336 25.4053C13.1637 25.7031 13.5222 25.9716 14.0947 26.1953C15.2887 26.6617 17.1765 26.8477 20 26.8477C22.823 26.8477 24.7112 26.659 25.9053 26.1914C26.4781 25.9671 26.8372 25.6982 27.0674 25.4004C27.2895 25.113 27.4452 24.7289 27.499 24.1738C27.4943 23.5872 27.402 23.1889 27.2812 22.873C27.1488 22.5268 26.9763 22.2509 26.7324 21.8428C26.4958 21.4467 26.2201 20.9661 26.0137 20.3262C25.8067 19.6845 25.6817 18.9235 25.6816 17.9453C25.6816 15.7378 23.5143 13 20 13Z" fill="black"/>
<rect x="31" y="5" width="6" height="6" rx="3" fill="#EF4444"/>
</svg>
