<svg width="22" height="22" viewBox="0 0 22 22" fill="none" xmlns="http://www.w3.org/2000/svg">
<ellipse cx="14.2502" cy="9.75" rx="6.5" ry="2" stroke="black" stroke-width="1.5"/>
<path d="M20.7502 14.25C20.7502 15.3546 17.8401 16.25 14.2502 16.25C10.6604 16.25 7.75024 15.3546 7.75024 14.25" stroke="black" stroke-width="1.5"/>
<path d="M20.7502 9.75V18.55C20.7502 19.765 17.8401 20.75 14.2502 20.75C10.6604 20.75 7.75024 19.765 7.75024 18.55V9.75" stroke="black" stroke-width="1.5"/>
<ellipse cx="7.25024" cy="2.75" rx="6.5" ry="2" stroke="black" stroke-width="1.5"/>
<path d="M4.75024 9.75C2.85843 9.51978 1.12016 8.92454 0.750244 7.75M4.75024 14.75C2.85843 14.5198 1.12016 13.9245 0.750244 12.75" stroke="black" stroke-width="1.5" stroke-linecap="round"/>
<path d="M4.75024 19.75C2.85843 19.5198 1.12016 18.9245 0.750244 17.75L0.750244 2.75" stroke="black" stroke-width="1.5" stroke-linecap="round"/>
<path d="M13.7502 4.75V2.75" stroke="black" stroke-width="1.5" stroke-linecap="round"/>
</svg>
