<svg width="20" height="22" viewBox="0 0 20 22" fill="none" xmlns="http://www.w3.org/2000/svg">
<path d="M12.75 13.752C12.75 14.5804 13.4216 15.252 14.25 15.252C15.0784 15.252 15.75 14.5804 15.75 13.752C15.75 12.9235 15.0784 12.252 14.25 12.252C13.4216 12.252 12.75 12.9235 12.75 13.752Z" stroke="black" stroke-width="1.5"/>
<path d="M12.7538 6.55476C7.32619 6.17867 2.8547 5.37328 0.75 4.75195V13.8134C0.75 15.8078 0.75 16.805 1.36958 17.6183C1.98916 18.4316 2.83923 18.6613 4.53937 19.1207C7.28623 19.8629 10.1735 20.3049 12.7606 20.5577C15.4419 20.8197 16.7825 20.9507 17.7663 20.0517C18.75 19.1527 18.75 17.7086 18.75 14.8202V12.8066C18.75 10.0017 18.75 8.59925 17.9429 7.72883C17.1359 6.85842 15.6752 6.7572 12.7538 6.55476Z" stroke="black" stroke-width="1.5" stroke-linecap="round" stroke-linejoin="round"/>
<path d="M15.3758 6.75195C15.7535 5.32868 16.0953 2.74017 15.077 1.45487C14.4316 0.640223 13.4723 0.718492 12.5318 0.801209C7.58791 1.23602 4.09544 2.11926 2.14301 2.71933C1.30348 2.97735 0.75 3.79717 0.75 4.71239" stroke="black" stroke-width="1.5" stroke-linejoin="round"/>
</svg>
