<svg width="25" height="24" viewBox="0 0 25 24" fill="none" xmlns="http://www.w3.org/2000/svg">
<path d="M15.25 10C14.8197 8.55426 13.3355 7.5 11.75 7.5C9.817 7.5 8.25 9.067 8.25 11C8.25 12.7632 9.55385 14.2574 11.25 14.5" stroke="#ABB7C2" stroke-width="1.5" stroke-linecap="round"/>
<path d="M20.7004 10C20.2197 5.53446 16.3096 2 11.75 2C6.87944 2 2.75 6.03298 2.75 10.9258C2.75 15.9137 6.9539 19.3616 10.823 21.7567C11.1055 21.9162 11.425 22 11.75 22C12.075 22 12.3945 21.9162 12.677 21.7567C12.9316 21.6009 13.1876 21.4403 13.4437 21.2748" stroke="#ABB7C2" stroke-width="1.5" stroke-linecap="round"/>
<path d="M18.25 12C20.6853 12 22.75 14.0165 22.75 16.4629C22.75 18.9482 20.6517 20.6924 18.7135 21.8783C18.5723 21.9581 18.4125 22 18.25 22C18.0875 22 17.9277 21.9581 17.7865 21.8783C15.8519 20.6808 13.75 18.9568 13.75 16.4629C13.75 14.0165 15.8147 12 18.25 12Z" stroke="#ABB7C2" stroke-width="1.5"/>
<path d="M18.25 16.5H18.259" stroke="#ABB7C2" stroke-width="2" stroke-linecap="round" stroke-linejoin="round"/>
</svg>
