<svg width="22" height="22" viewBox="0 0 22 22" fill="none" xmlns="http://www.w3.org/2000/svg">
<path d="M11.0003 8.34985C12.4637 8.35006 13.6497 9.53682 13.6497 11.0002C13.6495 12.4635 12.4636 13.6494 11.0003 13.6497C9.53688 13.6497 8.35013 12.4636 8.34991 11.0002C8.34991 9.53669 9.53675 8.34985 11.0003 8.34985Z" stroke="#120E2D" stroke-width="1.5"/>
<path d="M11.8499 4.25841V2.49976H10.1499V4.25841C8.65419 4.44939 7.26416 5.1315 6.19792 6.19774C5.13168 7.26398 4.44957 8.65401 4.25859 10.1498H2.49994V11.8498H4.25859C4.44929 13.3456 5.13131 14.7358 6.19761 15.8021C7.2639 16.8684 8.65408 17.5504 10.1499 17.7411V19.4998H11.8499V17.7411C13.3459 17.5505 14.7361 16.8686 15.8024 15.8022C16.8687 14.7359 17.5507 13.3457 17.7413 11.8498H19.4999V10.1498H17.7413C17.5506 8.6539 16.8686 7.26371 15.8023 6.19742C14.736 5.13113 13.3458 4.44911 11.8499 4.25841ZM10.9999 16.0998C8.18729 16.0998 5.89994 13.8124 5.89994 10.9998C5.89994 8.18711 8.18729 5.89976 10.9999 5.89976C13.8126 5.89976 16.0999 8.18711 16.0999 10.9998C16.0999 13.8124 13.8126 16.0998 10.9999 16.0998Z" fill="#120E2D"/>
</svg>
