<svg width="34" height="34" viewBox="0 0 34 34" fill="none" xmlns="http://www.w3.org/2000/svg">
<path d="M0 0H22C28.6274 0 34 5.37258 34 12V34H12C5.37258 34 0 28.6274 0 22V0Z" fill="#1326E4"/>
<path d="M18.5549 9.29976L20.1387 12.4936C20.3547 12.9382 20.9306 13.3646 21.4166 13.4463L24.2872 13.9272C26.123 14.2357 26.555 15.5785 25.2321 16.9032L23.0004 19.1534C22.6224 19.5345 22.4154 20.2695 22.5324 20.7957L23.1714 23.5812C23.6753 25.7861 22.5144 26.639 20.5796 25.4867L17.8889 23.8807C17.403 23.5903 16.6021 23.5903 16.1071 23.8807L13.4164 25.4867C11.4907 26.639 10.3208 25.777 10.8247 23.5812L11.4637 20.7957C11.5806 20.2695 11.3737 19.5345 10.9957 19.1534L8.76395 16.9032C7.4501 15.5785 7.87305 14.2357 9.70885 13.9272L12.5795 13.4463C13.0565 13.3646 13.6324 12.9382 13.8484 12.4936L15.4322 9.29976C16.2961 7.56675 17.7 7.56675 18.5549 9.29976Z" fill="white"/>
</svg>
