<svg width="18" height="17" viewBox="0 0 18 17" fill="none" xmlns="http://www.w3.org/2000/svg">
<path d="M10.3821 2.08313L11.79 4.74466C11.9819 5.11515 12.4939 5.47053 12.9258 5.53858L15.4775 5.93932C17.1094 6.1964 17.4933 7.31544 16.3175 8.41937L14.3337 10.2945C13.9977 10.6121 13.8137 11.2246 13.9177 11.6631L14.4857 13.9844C14.9336 15.8217 13.9017 16.5325 12.1819 15.5722L9.79018 14.2339C9.35822 13.9919 8.6463 13.9919 8.20635 14.2339L5.81461 15.5722C4.1028 16.5325 3.06292 15.8142 3.51087 13.9844L4.07881 11.6631C4.18279 11.2246 3.99881 10.6121 3.66285 10.2945L1.67907 8.41937C0.5112 7.31544 0.887159 6.1964 2.51898 5.93932L5.0707 5.53858C5.49465 5.47053 6.00659 5.11515 6.19857 4.74466L7.60642 2.08313C8.37433 0.638955 9.62219 0.638955 10.3821 2.08313Z" fill="#FE5E48" stroke="black" stroke-linecap="round" stroke-linejoin="round"/>
</svg>
