<svg width="13" height="12" viewBox="0 0 13 12" fill="none" xmlns="http://www.w3.org/2000/svg">
<path d="M7.27669 1.04754L8.30336 3.10087C8.44336 3.38671 8.81669 3.66087 9.13169 3.71337L10.9925 4.02254C12.1825 4.22087 12.4625 5.08421 11.605 5.93587L10.1584 7.38254C9.91336 7.62754 9.77919 8.10004 9.85502 8.43837L10.2692 10.2292C10.5959 11.6467 9.84336 12.195 8.58919 11.4542L6.84502 10.4217C6.53002 10.235 6.01086 10.235 5.69003 10.4217L3.94586 11.4542C2.69753 12.195 1.93919 11.6409 2.26586 10.2292L2.68003 8.43837C2.75586 8.10004 2.62169 7.62754 2.37669 7.38254L0.930025 5.93587C0.0783584 5.08421 0.352525 4.22087 1.54253 4.02254L3.40336 3.71337C3.71252 3.66087 4.08586 3.38671 4.22586 3.10087L5.25253 1.04754C5.81253 -0.0666276 6.72252 -0.0666276 7.27669 1.04754Z" fill="#34A853"/>
</svg>
