 <svg width="23" height="18" viewBox="0 0 23 18" fill="none" xmlns="http://www.w3.org/2000/svg">
<path d="M22.4606 5.40625H19.7711L19.0236 3.5375C18.2554 1.61619 16.4222 0.375 14.3526 0.375H8.64754C6.57844 0.375 4.74473 1.61619 3.97612 3.5375L3.22862 5.40625H0.539593C0.188753 5.40625 -0.0686497 5.73598 0.0167019 6.07604L0.286233 7.15416C0.345979 7.39404 0.561604 7.5625 0.809124 7.5625H1.71071C1.10741 8.08943 0.718831 8.85535 0.718831 9.71875V11.875C0.718831 12.5991 0.995549 13.2528 1.43758 13.7586V16.1875C1.43758 16.9813 2.08131 17.625 2.87508 17.625H4.31258C5.10635 17.625 5.75008 16.9813 5.75008 16.1875V14.75H17.2501V16.1875C17.2501 16.9813 17.8938 17.625 18.6876 17.625H20.1251C20.9189 17.625 21.5626 16.9813 21.5626 16.1875V13.7586C22.0046 13.2532 22.2813 12.5996 22.2813 11.875V9.71875C22.2813 8.85535 21.8928 8.08943 21.2899 7.5625H22.1915C22.439 7.5625 22.6546 7.39404 22.7144 7.15416L22.9839 6.07604C23.0688 5.73598 22.8114 5.40625 22.4606 5.40625ZM6.64537 4.60529C6.97285 3.78682 7.76573 3.25 8.64754 3.25H14.3526C15.2344 3.25 16.0273 3.78682 16.3548 4.60529L17.2501 6.84375H5.75008L6.64537 4.60529ZM4.31258 11.866C3.45008 11.866 2.87508 11.2928 2.87508 10.433C2.87508 9.5732 3.45008 9 4.31258 9C5.17508 9 6.46883 10.2897 6.46883 11.1495C6.46883 12.0093 5.17508 11.866 4.31258 11.866ZM18.6876 11.866C17.8251 11.866 16.5313 12.0093 16.5313 11.1495C16.5313 10.2897 17.8251 9 18.6876 9C19.5501 9 20.1251 9.5732 20.1251 10.433C20.1251 11.2928 19.5501 11.866 18.6876 11.866V11.866Z" fill="white"/>
</svg>
